<svg width="30" height="27" viewBox="0 0 30 27" fill="none" xmlns="http://www.w3.org/2000/svg">
<path d="M15 10V15.3334M15 20.6667H15.0134M12.72 3.1467L1.42669 22C1.19385 22.4033 1.07065 22.8604 1.06935 23.3261C1.06804 23.7917 1.18868 24.2495 1.41926 24.6541C1.64984 25.0586 1.98233 25.3957 2.38364 25.6318C2.78495 25.868 3.24109 25.9949 3.70669 26H26.2934C26.759 25.9949 27.2151 25.868 27.6164 25.6318C28.0177 25.3957 28.3502 25.0586 28.5808 24.6541C28.8114 24.2495 28.932 23.7917 28.9307 23.3261C28.9294 22.8604 28.8062 22.4033 28.5734 22L17.28 3.1467C17.0423 2.75484 16.7077 2.43085 16.3083 2.20601C15.9089 1.98116 15.4583 1.86304 15 1.86304C14.5417 1.86304 14.0911 1.98116 13.6918 2.20601C13.2924 2.43085 12.9577 2.75484 12.72 3.1467Z" stroke="white" stroke-width="2" stroke-linecap="round" stroke-linejoin="round"/>
</svg>
