<svg width="81" height="81" viewBox="0 0 81 81" fill="none" xmlns="http://www.w3.org/2000/svg">
<path fill-rule="evenodd" clip-rule="evenodd" d="M40.5 81C62.8675 81 81 62.8675 81 40.5C81 18.1325 62.8675 0 40.5 0C18.1325 0 0 18.1325 0 40.5C0 62.8675 18.1325 81 40.5 81ZM63.7926 59.255C64.6315 58.419 65.1028 57.2851 65.1028 56.1028V31.5841C65.1028 30.4018 64.6315 29.2679 63.7926 28.4319C62.9537 27.5958 61.8159 27.1262 60.6296 27.1262H51.6831L47.2099 20.4393H33.7901L29.3169 27.1262H20.3704C19.1841 27.1262 18.0463 27.5958 17.2074 28.4319C16.3685 29.2679 15.8972 30.4018 15.8972 31.5841V56.1028C15.8972 57.2851 16.3685 58.419 17.2074 59.255C18.0463 60.0911 19.1841 60.5607 20.3704 60.5607H60.6296C61.8159 60.5607 62.9537 60.0911 63.7926 59.255Z" fill="white"/>
<path d="M40.7409 51.1402C45.6819 51.1402 49.6874 47.1484 49.6874 42.2243C49.6874 37.3002 45.6819 33.3084 40.7409 33.3084C35.7999 33.3084 31.7944 37.3002 31.7944 42.2243C31.7944 47.1484 35.7999 51.1402 40.7409 51.1402Z" fill="white" stroke="white" stroke-width="1.5" stroke-linecap="round" stroke-linejoin="round"/>
</svg>
